# Blender v2.78 (sub 0) OBJ File: 'tree-conical.blend'
# www.blender.org
mtllib tree-conical.mtl
o leaves_Sphere
v 0.762083 1.566184 0.389045
v 0.516908 6.756762 0.947267
v 1.089044 2.005085 2.049833
v -0.134217 2.194643 2.210281
v 0.053086 1.556702 0.787385
v -1.504130 3.338139 0.837510
v -1.954903 2.076443 0.862016
v -0.988833 7.653991 0.095138
v -1.562896 3.721200 -1.080586
v -0.886687 1.436393 -2.426835
v -0.562713 3.652535 -1.927075
v 0.677104 4.249625 -1.763587
v 0.939626 1.330716 -1.822990
v 1.181258 3.394704 -1.624555
v 0.684304 1.625082 -0.537549
v 1.564628 1.405873 0.112426
v 1.019034 3.185836 1.632335
v -1.770880 3.724967 -0.129359
v -0.554555 1.489674 -1.013581
v 1.115207 1.997350 -2.118265
v 1.726592 3.632486 -0.502145
v 0.548657 8.303008 0.259828
v 1.894489 1.836705 1.427883
v 1.558278 3.446837 1.170170
v 0.089923 7.004013 1.039923
v 0.117213 8.604403 0.319616
v -0.272186 5.433068 1.431543
v -0.755647 6.393357 0.782664
v -0.317199 1.562411 0.181614
v -0.774221 7.763534 0.528163
v -0.629184 3.358213 1.673695
v -1.418586 2.411425 1.836533
v -0.475831 8.651885 0.187531
v -1.156711 6.401783 0.232683
v -1.084237 1.803048 0.348156
v -2.495934 2.278970 -0.141787
v -2.547338 2.011460 -0.734792
v -0.724035 1.481020 -0.385334
v 0.111649 9.024858 -0.281825
v -0.605515 8.477184 -0.202770
v -0.985658 5.710421 -1.175916
v -0.120452 8.410241 -0.848641
v 0.056797 1.659187 -0.435376
v 0.354602 7.305121 -1.111562
v -0.106834 1.449120 -2.489506
v 0.020957 6.283008 -1.436235
v 1.378272 5.481219 -0.799816
v 2.081766 2.071328 -1.276261
v 0.415330 8.568402 -0.593431
v 1.228112 6.396636 0.212588
v 2.283234 1.781337 -0.093220
vn 0.9823 0.1474 0.1152
vn 0.5470 0.6885 0.4763
vn 0.4923 -0.8562 0.1570
vn 0.7542 0.2538 0.6057
vn 0.5604 0.2437 0.7915
vn 0.5661 0.2314 0.7912
vn 0.6219 0.2936 0.7260
vn -0.0893 -0.9132 0.3977
vn 0.1736 0.3374 0.9252
vn 0.0060 -0.9999 -0.0131
vn 0.0364 0.1097 0.9933
vn 0.0686 0.4417 0.8945
vn -0.3256 -0.8780 0.3508
vn -0.2110 0.3339 0.9187
vn -0.1738 0.4066 0.8969
vn -0.4769 0.3145 0.8208
vn -0.1683 0.4017 0.9002
vn -0.5713 0.5768 0.5839
vn -0.8034 0.0982 0.5873
vn -0.0779 -0.9289 0.3622
vn -0.8544 0.4096 0.3198
vn -0.8748 0.3155 0.3676
vn -0.8997 0.1650 0.4042
vn -0.9305 0.1696 0.3246
vn -0.8889 0.4482 0.0947
vn -0.9195 0.1626 0.3578
vn -0.9565 0.2024 -0.2099
vn -0.8701 0.4731 -0.1380
vn -0.3265 -0.8507 0.4120
vn -0.2634 -0.9610 -0.0843
vn -0.7444 0.3102 -0.5912
vn 0.0390 -0.9519 0.3040
vn -0.6138 0.2580 -0.7461
vn -0.3730 0.2495 -0.8936
vn 0.0190 -0.9993 0.0332
vn -0.0817 0.2306 -0.9696
vn 0.3180 0.3466 -0.8824
vn 0.6059 -0.4501 -0.6560
vn 0.6136 0.2395 -0.7524
vn 0.6673 0.2549 -0.6998
vn 0.4237 -0.8610 0.2813
vn 0.7832 0.4100 -0.4674
vn 0.0748 -0.9098 -0.4081
vn 0.3801 -0.8813 -0.2808
vn 0.8430 0.5368 0.0352
vn 0.9434 0.3032 -0.1343
vn -0.2104 -0.9766 -0.0444
vn 0.9831 0.1822 -0.0189
vn -0.0636 -0.9963 -0.0580
vn 0.9408 0.3364 -0.0424
vn 0.9414 0.3116 0.1293
vn 0.9439 0.2343 0.2327
vn 0.3868 0.3705 0.8445
vn -0.3585 -0.6663 -0.6539
vn 0.7547 0.2775 0.5945
vn 0.3279 0.2223 0.9182
vn 0.1911 0.1957 0.9619
vn 0.0298 -0.9901 -0.1372
vn -0.0620 0.8177 0.5722
vn -0.2472 -0.9151 0.3185
vn -0.3929 0.1628 0.9051
vn -0.6252 0.1957 0.7555
vn -0.2984 -0.9192 0.2570
vn 0.7323 -0.5090 -0.4524
vn -0.6818 0.1798 0.7091
vn -0.7895 0.2038 0.5789
vn -0.8786 0.0183 0.4772
vn -0.3121 -0.9498 -0.0234
vn 0.2213 -0.9750 -0.0188
vn -0.8142 0.4047 0.4163
vn -0.6105 0.7785 -0.1456
vn -0.3772 -0.9019 0.2107
vn -0.8764 0.4411 -0.1934
vn -0.8767 0.2623 -0.4033
vn -0.8959 0.2421 -0.3725
vn 0.2251 -0.9732 0.0473
vn -0.5622 0.6653 -0.4912
vn -0.6331 0.1473 -0.7600
vn -0.6540 0.2309 -0.7204
vn -0.2400 -0.9663 0.0928
vn -0.3623 0.2257 -0.9043
vn 0.1009 0.2711 -0.9572
vn 0.1910 -0.9779 0.0848
vn 0.0463 0.1733 -0.9838
vn 0.0079 0.2488 -0.9685
vn 0.4401 -0.4580 -0.7724
vn -0.1834 -0.9764 0.1145
vn 0.6114 0.2378 -0.7548
vn 0.2058 0.1912 -0.9597
vn 0.5450 0.3018 -0.7822
vn 0.1736 0.6314 -0.7558
vn 0.4787 0.1200 -0.8697
vn -0.0172 -0.9754 0.2199
vn 0.6287 0.2325 -0.7421
vn 0.8874 0.0945 -0.4512
vn 0.9588 0.2667 -0.0979
usemtl tree_green
s off
f 21//1 50//1 24//1
f 26//2 22//2 39//2
f 16//3 51//3 23//3
f 22//4 2//4 50//4
f 24//5 17//5 23//5
f 2//6 17//6 24//6
f 17//7 3//7 23//7
f 4//8 5//8 3//8
f 17//9 4//9 3//9
f 5//10 29//10 1//10
f 17//11 27//11 31//11
f 17//12 31//12 4//12
f 4//13 35//13 5//13
f 32//14 4//14 31//14
f 25//15 26//15 30//15
f 25//16 28//16 27//16
f 33//17 30//17 26//17
f 6//18 32//18 31//18
f 30//19 34//19 28//19
f 7//20 35//20 32//20
f 33//21 8//21 30//21
f 18//22 32//22 6//22
f 8//23 34//23 30//23
f 6//24 34//24 18//24
f 8//25 33//25 40//25
f 34//26 8//26 18//26
f 18//27 8//27 9//27
f 37//28 36//28 9//28
f 37//29 38//29 36//29
f 38//30 37//30 19//30
f 41//31 40//31 42//31
f 5//32 16//32 23//32 3//32
f 10//33 9//33 11//33
f 11//34 41//34 46//34
f 19//35 10//35 45//35
f 10//36 11//36 45//36
f 49//37 44//37 42//37
f 20//38 48//38 13//38
f 14//39 12//39 47//39
f 47//40 44//40 49//40
f 15//41 13//41 48//41
f 14//42 21//42 48//42
f 16//43 15//43 48//43
f 48//44 51//44 16//44
f 39//45 22//45 49//45
f 47//46 49//46 50//46
f 15//47 16//47 1//47
f 50//48 21//48 47//48
f 1//49 43//49 15//49
f 49//50 22//50 50//50
f 51//51 21//51 24//51
f 24//52 23//52 51//52
f 26//53 25//53 2//53 22//53
f 16//54 5//54 1//54
f 50//55 2//55 24//55
f 2//56 25//56 17//56
f 25//57 27//57 17//57
f 29//58 43//58 1//58
f 26//59 39//59 33//59
f 4//60 32//60 35//60
f 28//61 25//61 30//61
f 27//62 28//62 31//62
f 35//63 38//63 5//63
f 29//64 5//64 38//64
f 6//65 31//65 28//65
f 28//66 34//66 6//66
f 7//67 32//67 36//67
f 7//68 36//68 35//68
f 38//69 43//69 29//69
f 18//70 36//70 32//70
f 33//71 39//71 40//71
f 38//72 35//72 36//72
f 36//73 18//73 9//73
f 40//74 41//74 8//74
f 8//75 41//75 9//75
f 43//76 38//76 19//76
f 40//77 39//77 42//77
f 41//78 11//78 9//78
f 9//79 10//79 37//79
f 10//80 19//80 37//80
f 41//81 42//81 46//81
f 46//82 42//82 44//82
f 43//83 19//83 45//83
f 11//84 46//84 12//84
f 45//85 11//85 12//85
f 20//86 13//86 45//86
f 43//87 45//87 13//87
f 12//88 14//88 20//88
f 20//89 45//89 12//89
f 12//90 46//90 47//90
f 39//91 49//91 42//91
f 47//92 46//92 44//92
f 13//93 15//93 43//93
f 20//94 14//94 48//94
f 14//95 47//95 21//95
f 21//96 51//96 48//96
o trunk_Cube
v 0.065239 0.011577 0.370610
v -0.221539 -0.010605 0.316351
v 0.070569 0.858406 -0.297504
v 0.007337 -0.052761 0.281262
v -0.114839 0.707263 -0.293511
v 0.150647 0.010289 -0.336706
v 0.366750 0.010699 0.081002
v -0.263014 1.573242 -0.019474
v 0.198901 2.239453 0.024822
v -0.102421 -0.027706 -0.353087
v 0.263877 -0.018269 -0.269950
v 0.339685 -0.030309 -0.133546
v 0.269277 -0.018696 0.268582
v -0.367467 0.010903 -0.080628
v -0.342151 -0.028796 0.143257
v -0.086367 2.428622 0.138785
v 0.117176 2.099969 0.143698
v 0.025707 5.522987 -0.216920
v -0.150868 5.447255 -0.089182
v 0.115374 5.503716 0.019335
v 0.010557 5.511070 0.060276
v 0.121645 5.560866 -0.102743
v -0.109499 3.311795 -0.284867
v -0.202026 1.763187 0.111283
v -0.251294 0.735130 -0.204693
v -0.076368 5.547567 -0.076136
v -0.100347 5.438909 -0.219616
v -0.277145 -0.017972 -0.256091
v 0.216222 1.440201 -0.153189
v -0.115852 5.458795 0.016657
vn -0.0533 -0.7937 0.6060
vn -0.1470 -0.9678 0.2041
vn -0.0775 -0.9962 -0.0396
vn 0.0520 -0.9918 -0.1164
vn 0.1312 -0.9900 0.0516
vn 0.9868 0.0810 -0.1400
vn 0.0568 0.0515 -0.9971
vn 0.4715 -0.8753 0.1078
vn -0.4758 -0.8737 -0.1011
vn -0.6912 0.0905 0.7170
vn 0.5125 0.0861 -0.8544
vn -0.7986 0.5668 0.2024
vn -0.7389 0.5909 -0.3240
vn -0.4724 0.7286 0.4960
vn -0.0276 0.9611 0.2748
vn 0.0162 0.0250 0.9996
vn 0.3657 0.0342 0.9301
vn 0.9977 0.0256 0.0633
vn -0.9225 0.0314 0.3847
vn -0.9499 0.0331 0.3107
vn 0.0009 0.0307 -0.9995
vn 0.7624 0.0185 -0.6468
vn 0.1349 -0.8435 0.5200
vn -0.8782 0.0771 0.4721
vn -0.5450 0.0039 -0.8385
vn -0.0243 0.0034 -0.9997
vn -0.0567 -0.9979 -0.0296
vn 0.0150 -0.9990 -0.0421
vn -0.9905 0.0614 0.1229
vn -0.5053 0.0687 -0.8602
vn -0.9111 0.0768 -0.4050
vn -0.8832 0.0620 -0.4649
vn -0.0858 0.0791 -0.9932
vn -0.9645 0.0270 -0.2626
vn 0.8746 0.0670 -0.4802
vn 0.7789 0.0744 0.6227
vn 0.8778 0.0907 0.4704
vn 0.9751 0.0681 -0.2110
vn 0.1566 -0.7838 -0.6009
vn 0.4557 0.0849 0.8861
vn -0.1914 0.0818 0.9781
vn 0.1432 0.1034 0.9843
vn -0.4806 0.7359 -0.4770
vn 0.2266 0.8776 0.4225
vn -0.0970 0.9662 -0.2390
vn -0.4062 0.0329 0.9132
vn -0.3388 0.0346 0.9402
vn 0.8118 0.0218 0.5836
vn 0.9997 0.0230 -0.0061
vn -0.7727 0.0228 -0.6344
vn 0.6531 0.0243 -0.7569
vn 0.1867 0.0188 -0.9822
usemtl tree_bark_dark
s off
f 52//97 53//97 55//97
f 55//98 53//98 66//98
f 66//99 79//99 61//99
f 61//100 62//100 63//100
f 63//101 64//101 55//101
f 58//102 63//102 80//102
f 54//103 57//103 61//103
f 58//104 64//104 63//104
f 65//105 79//105 66//105
f 67//106 75//106 53//106
f 62//107 57//107 54//107 80//107
f 70//108 81//108 77//108
f 70//109 77//109 78//109
f 72//110 77//110 81//110
f 77//111 72//111 73//111
f 68//112 72//112 67//112
f 71//113 72//113 68//113
f 60//114 73//114 71//114
f 59//115 75//115 81//115
f 81//116 70//116 59//116
f 74//117 78//117 69//117
f 69//118 73//118 54//118
f 52//119 55//119 64//119
f 75//120 59//120 66//120 53//120
f 56//121 76//121 74//121
f 54//122 56//122 74//122
f 55//123 66//123 61//123
f 55//124 61//124 63//124
f 65//125 66//125 59//125
f 76//126 56//126 61//126 79//126
f 59//127 76//127 65//127
f 65//128 76//128 79//128
f 54//129 61//129 56//129
f 76//130 59//130 70//130 78//130
f 80//131 63//131 62//131
f 58//132 60//132 68//132
f 68//133 64//133 58//133
f 60//134 58//134 80//134
f 61//135 57//135 62//135
f 68//136 52//136 64//136
f 67//137 53//137 52//137
f 67//138 52//138 68//138
f 69//139 78//139 77//139
f 71//140 73//140 72//140
f 77//141 73//141 69//141
f 81//142 75//142 67//142
f 67//143 72//143 81//143
f 71//144 68//144 60//144
f 60//145 80//145 73//145
f 76//146 78//146 74//146
f 54//147 73//147 80//147
f 54//148 74//148 69//148
