# Blender v2.78 (sub 0) OBJ File: 'tree-round.blend'
# www.blender.org
mtllib tree-round.mtl
o leaves_Icosphere.002
v -0.262365 4.206862 0.346429
v -1.181274 3.607048 2.282067
v -1.507961 3.665589 -2.124026
v -0.101107 6.045513 2.400663
v -2.535206 5.383346 -1.826754
v 2.442608 6.253155 0.023190
v -0.591082 7.963504 -0.114734
v -0.906482 3.639888 1.210450
v 0.760289 3.742337 2.191859
v 2.116135 3.600985 1.098719
v -0.369516 3.938058 -0.689469
v 1.161262 3.955021 -1.719622
v -0.789106 4.018748 0.385062
v -2.253344 3.834440 1.685130
v -2.722421 3.793841 0.653962
v -1.378745 3.932271 -0.388178
v -0.238622 3.769677 -1.980554
v 0.175016 3.811855 -1.483014
v 3.037497 5.143692 0.491466
v 3.085383 4.058761 0.581732
v 3.022784 5.023809 -0.624839
v 0.618614 5.312798 3.103650
v 2.037277 3.662377 2.038445
v 1.977491 4.064149 2.468516
v -3.314045 3.824429 1.389544
v -3.397763 3.598495 1.092662
v -1.335608 4.484900 2.707002
v -2.138413 4.731421 2.416873
v -2.041586 5.272121 2.189951
v -3.222312 4.448834 -1.873704
v -2.330137 3.932498 -2.311235
v -3.351956 3.684818 -0.545270
v -3.811520 4.244428 -0.769058
v -3.459105 5.242414 -0.703082
v 0.851037 4.379606 -2.547184
v -0.730793 4.257931 -2.802676
v 0.388763 5.591202 -2.682850
v 2.488245 5.913327 1.258143
v 1.773070 6.137354 2.043215
v 0.752552 6.318754 2.415054
v -0.434265 5.681380 -2.630116
v 1.551476 5.693401 -1.608936
v 2.527031 5.744837 -0.846394
v 0.023434 7.883810 0.606615
v 1.226303 7.374259 0.159888
v 0.036821 7.853139 -0.274384
v -1.467955 7.597692 0.306265
v -1.573983 6.415035 2.106590
v -1.907491 6.194436 1.976390
v -1.967094 7.441780 -0.818307
v -2.717819 6.478015 -1.155083
v 0.347585 6.512843 -2.314184
v -0.831889 7.596352 -1.070408
v -1.674584 6.849865 -1.792537
v -2.813706 6.673599 -0.206749
v -2.458084 6.563536 0.489291
v -0.486671 7.532323 1.097025
v 0.662223 7.004156 1.848643
v 1.577157 7.137270 0.975662
v 2.447361 4.948838 -1.397339
v 1.317047 4.353246 -1.992719
v -2.158282 4.097260 -2.570721
v -3.922764 4.094387 0.547669
v -1.064711 4.923511 2.758853
v 2.354805 4.927997 2.024844
v 0.263376 4.606065 -2.729375
v -3.237877 3.902216 -1.406791
v -2.309661 3.913240 2.243135
v 0.492200 4.538439 3.238724
v -0.310492 3.463484 2.895090
v 0.986734 3.833433 2.672825
v 2.774392 4.279346 -0.917307
v 2.779606 3.580198 -0.033597
v 2.423639 3.736372 -0.494231
v -1.099617 3.509888 -1.214013
v -1.697319 3.758518 -0.853936
v -2.132097 4.205885 0.777800
v 0.503356 3.606806 -0.881585
v 1.402542 3.979770 0.493259
v 0.463971 4.598632 0.714900
v -0.312752 3.357638 1.944835
v 0.491393 4.454821 1.408855
vn 0.3236 -0.9354 -0.1422
vn 0.0780 -0.9669 0.2428
vn -0.5647 -0.4379 0.6996
vn 0.0180 -0.8868 -0.4617
vn 0.2512 -0.9669 -0.0439
vn -0.2072 0.6068 0.7674
vn -0.7644 0.2397 -0.5985
vn -0.0189 0.3706 -0.9286
vn 0.4683 0.7695 -0.4343
vn 0.6120 0.7072 -0.3540
vn 0.4195 0.6953 -0.5836
vn 0.6672 0.5973 -0.4450
vn 0.6295 0.3127 -0.7113
vn 0.0679 0.9255 -0.3727
vn -0.1953 0.9310 -0.3085
vn 0.2232 0.8299 -0.5113
vn -0.0558 0.7260 -0.6854
vn -0.2320 0.7988 -0.5550
vn -0.5570 0.6250 -0.5470
vn -0.1466 0.4688 -0.8711
vn -0.3763 0.2417 -0.8944
vn -0.5763 0.3554 -0.7359
vn -0.3702 0.9283 0.0356
vn -0.7353 0.6452 -0.2074
vn -0.5990 0.7852 0.1570
vn -0.6170 0.6652 0.4204
vn -0.6245 0.6692 0.4028
vn -0.6091 0.6871 0.3961
vn -0.8711 0.4560 -0.1821
vn -0.2383 0.9221 0.3049
vn -0.3500 0.7923 0.4998
vn -0.2476 0.8908 0.3809
vn -0.1123 0.7241 0.6805
vn -0.0392 0.5219 0.8521
vn 0.1652 0.9858 -0.0318
vn 0.3816 0.9239 -0.0264
vn -0.0044 0.8150 0.5795
vn 0.3004 0.8444 0.4436
vn 0.4151 0.9058 0.0846
vn 0.6713 0.7374 -0.0745
vn 0.3634 0.6215 0.6941
vn 0.4418 0.6938 0.5688
vn 0.6694 0.5995 0.4387
vn 0.7786 0.6118 0.1396
vn 0.8343 0.5074 -0.2156
vn 0.8031 -0.0342 -0.5949
vn 0.4461 -0.6183 -0.6471
vn 0.7414 0.3302 -0.5843
vn 0.5375 0.4429 -0.7176
vn 0.5598 -0.2845 -0.7782
vn 0.3753 0.1939 -0.9064
vn 0.5988 -0.5989 -0.5317
vn 0.7657 0.0497 -0.6412
vn 0.6605 0.1701 -0.7313
vn -0.1819 0.2384 -0.9540
vn -0.0265 -0.7379 -0.6744
vn -0.0608 0.0287 -0.9977
vn -0.3769 0.3785 -0.8454
vn -0.1249 -0.7981 -0.5895
vn -0.4270 0.3557 -0.8313
vn -0.9413 0.3351 -0.0413
vn -0.7377 -0.6609 -0.1376
vn -0.9150 0.4022 0.0300
vn -0.7586 0.4609 0.4605
vn -0.6530 -0.7551 -0.0581
vn -0.8119 -0.3310 0.4809
vn -0.6704 0.4123 0.6169
vn -0.8959 0.2197 0.3862
vn -0.3159 0.0834 0.9451
vn -0.4971 0.2637 0.8266
vn -0.3427 0.4151 0.8428
vn -0.4242 0.2373 0.8739
vn -0.0908 0.3728 0.9234
vn -0.2837 0.5040 0.8158
vn -0.1964 0.5715 0.7967
vn 0.5477 0.1804 0.8170
vn 0.5440 0.4234 0.7244
vn 0.3630 0.1607 0.9178
vn 0.7404 0.3474 0.5754
vn 0.7961 -0.3831 0.4685
vn 0.8564 -0.1156 0.5032
vn 0.9071 0.0745 0.4143
vn 0.8821 0.2090 0.4221
vn 0.8567 0.5046 0.1072
vn 0.2986 0.0071 -0.9544
vn 0.0597 0.0395 -0.9974
vn -0.1523 -0.8286 -0.5388
vn 0.5691 -0.7112 -0.4128
vn 0.3009 -0.7300 -0.6137
vn 0.1305 -0.8162 -0.5629
vn -0.6865 0.5298 -0.4980
vn -0.8572 0.3289 -0.3963
vn -0.5888 -0.4467 -0.6736
vn -0.5983 -0.5105 -0.6176
vn -0.7783 -0.3949 -0.4882
vn -0.6920 -0.6729 -0.2614
vn -0.7699 0.4032 0.4947
vn -0.7561 0.3637 0.5441
vn -0.4666 -0.6355 0.6152
vn -0.6460 -0.0268 0.7629
vn -0.3694 -0.1184 0.9217
vn 0.2356 -0.9694 -0.0690
vn 0.1240 -0.9807 0.1510
vn -0.1530 -0.4522 0.8787
vn -0.2417 0.2049 0.9485
vn -0.1833 -0.0030 0.9830
vn 0.4778 0.0747 0.8753
vn -0.3099 -0.0716 0.9481
vn 0.2785 -0.4748 0.8349
vn 0.2822 -0.4723 0.8350
vn 0.2966 -0.6770 0.6736
vn 0.2817 -0.9583 0.0489
vn -0.0369 -0.9785 0.2027
vn -0.0551 -0.9966 0.0605
vn 0.8901 0.4518 -0.0603
vn 0.9796 0.0267 -0.1993
vn 0.6317 -0.7319 0.2553
vn 0.9457 -0.3243 0.0224
vn 0.9276 -0.2903 -0.2352
vn 0.4191 -0.7108 -0.5649
vn 0.4225 -0.7110 -0.5621
vn 0.0929 -0.9930 0.0727
vn -0.2522 -0.9589 -0.1302
vn 0.0525 -0.9361 -0.3478
vn -0.3737 -0.9210 -0.1100
vn 0.2839 -0.8975 0.3375
vn 0.2109 -0.9731 -0.0929
vn 0.1037 -0.9716 -0.2128
vn 0.1513 -0.8584 0.4902
vn -0.3031 -0.9526 -0.0270
vn -0.3603 -0.9317 0.0452
vn -0.0594 -0.9939 -0.0929
vn -0.1219 -0.8998 0.4190
vn -0.0025 -0.9695 -0.2450
vn 0.2439 -0.9514 0.1881
vn 0.0558 -0.9966 0.0613
vn 0.4394 -0.7690 0.4643
vn 0.5890 -0.7724 -0.2375
vn -0.0855 -0.9809 0.1749
vn -0.2391 -0.8870 -0.3951
vn -0.2766 -0.8579 -0.4331
vn -0.1678 -0.9831 -0.0732
vn -0.2638 -0.9584 0.1087
vn 0.1237 -0.9470 -0.2964
vn -0.3626 -0.9201 -0.1482
vn 0.0142 -0.9673 0.2531
vn -0.4031 -0.7818 0.4757
vn -0.2035 -0.8339 0.5130
vn -0.5312 -0.8414 0.0997
vn 0.3878 -0.9012 0.1937
vn -0.3133 -0.9433 -0.1093
vn 0.5120 -0.8059 -0.2971
vn -0.2354 -0.9659 0.1081
vn 0.3143 -0.9436 0.1044
vn 0.4598 -0.6385 -0.6172
vn 0.3797 -0.6156 -0.6906
vn 0.3351 -0.9420 -0.0179
vn 0.5394 -0.8201 -0.1913
vn -0.4829 -0.8610 -0.1594
vn -0.4761 -0.7256 -0.4967
usemtl tree_green
s off
f 1//1 13//1 16//1
f 1//2 16//2 11//2
f 2//3 70//3 27//3
f 12//4 18//4 35//4
f 15//5 26//5 32//5
f 4//6 40//6 58//6
f 5//7 34//7 51//7
f 37//8 41//8 52//8
f 45//9 52//9 46//9
f 6//10 43//10 45//10
f 43//11 42//11 45//11
f 45//12 42//12 52//12
f 42//13 37//13 52//13
f 46//14 53//14 7//14
f 53//15 50//15 7//15
f 46//16 52//16 53//16
f 52//17 54//17 53//17
f 53//18 54//18 50//18
f 54//19 51//19 50//19
f 52//20 41//20 54//20
f 41//21 5//21 54//21
f 54//22 5//22 51//22
f 50//23 47//23 7//23
f 51//24 55//24 50//24
f 50//25 55//25 47//25
f 55//26 56//26 47//26
f 47//27 56//27 48//27
f 56//28 49//28 48//28
f 51//29 34//29 55//29
f 47//30 44//30 7//30
f 48//31 57//31 47//31
f 47//32 57//32 44//32
f 48//33 58//33 57//33
f 48//34 4//34 58//34
f 44//35 46//35 7//35
f 44//36 45//36 46//36
f 57//37 58//37 44//37
f 58//38 59//38 44//38
f 44//39 59//39 45//39
f 59//40 6//40 45//40
f 40//41 39//41 58//41
f 58//42 39//42 59//42
f 39//43 38//43 59//43
f 59//44 38//44 6//44
f 21//45 43//45 6//45
f 72//46 60//46 21//46
f 12//47 61//47 72//47
f 21//48 60//48 43//48
f 60//49 42//49 43//49
f 72//50 61//50 60//50
f 60//51 61//51 42//51
f 12//52 35//52 61//52
f 61//53 35//53 42//53
f 35//54 37//54 42//54
f 36//55 62//55 37//55
f 3//56 62//56 36//56
f 37//57 62//57 41//57
f 62//58 5//58 41//58
f 3//59 31//59 62//59
f 62//60 30//60 5//60
f 33//61 63//61 34//61
f 32//62 63//62 33//62
f 63//63 55//63 34//63
f 63//64 56//64 55//64
f 32//65 26//65 63//65
f 26//66 25//66 63//66
f 63//67 25//67 56//67
f 29//68 49//68 56//68
f 27//69 64//69 28//69
f 29//70 48//70 49//70
f 28//71 64//71 29//71
f 29//72 64//72 48//72
f 64//73 4//73 48//73
f 64//74 22//74 4//74
f 22//75 40//75 4//75
f 24//76 65//76 22//76
f 22//77 65//77 40//77
f 65//78 39//78 40//78
f 65//79 38//79 39//79
f 23//80 20//80 24//80
f 24//81 20//81 65//81
f 20//82 19//82 65//82
f 65//83 19//83 38//83
f 19//84 6//84 38//84
f 35//85 66//85 37//85
f 66//86 36//86 37//86
f 35//87 18//87 66//87
f 18//88 17//88 66//88
f 66//89 17//89 36//89
f 17//90 3//90 36//90
f 30//91 34//91 5//91
f 30//92 33//92 34//92
f 62//93 31//93 30//93
f 31//94 67//94 30//94
f 30//95 67//95 33//95
f 67//96 32//96 33//96
f 25//97 29//97 56//97
f 25//98 28//98 29//98
f 26//99 68//99 25//99
f 25//100 68//100 28//100
f 68//101 27//101 28//101
f 15//102 14//102 26//102
f 26//103 14//103 68//103
f 68//104 2//104 27//104
f 64//105 69//105 22//105
f 27//106 70//106 64//106
f 69//107 24//107 22//107
f 64//108 70//108 69//108
f 70//109 71//109 69//109
f 69//110 71//110 24//110
f 71//111 23//111 24//111
f 70//112 9//112 71//112
f 71//113 9//113 23//113
f 9//114 10//114 23//114
f 19//115 21//115 6//115
f 20//116 72//116 19//116
f 23//117 73//117 20//117
f 19//118 72//118 21//118
f 20//119 73//119 72//119
f 73//120 74//120 72//120
f 74//121 12//121 72//121
f 23//122 10//122 73//122
f 10//123 74//123 73//123
f 78//124 18//124 12//124
f 78//125 11//125 18//125
f 11//126 75//126 18//126
f 18//127 75//127 17//127
f 75//128 3//128 17//128
f 16//129 75//129 11//129
f 75//130 31//130 3//130
f 75//131 76//131 31//131
f 76//132 67//132 31//132
f 75//133 16//133 76//133
f 76//134 32//134 67//134
f 16//135 15//135 76//135
f 76//136 15//136 32//136
f 16//137 77//137 15//137
f 77//138 14//138 15//138
f 16//139 13//139 77//139
f 13//140 14//140 77//140
f 13//141 8//141 14//141
f 8//142 2//142 14//142
f 14//143 2//143 68//143
f 74//144 78//144 12//144
f 10//145 79//145 74//145
f 74//146 79//146 78//146
f 79//147 80//147 78//147
f 80//148 11//148 78//148
f 10//149 80//149 79//149
f 80//150 1//150 11//150
f 8//151 81//151 2//151
f 13//152 82//152 8//152
f 2//153 81//153 70//153
f 81//154 9//154 70//154
f 8//155 82//155 81//155
f 81//156 82//156 9//156
f 13//157 1//157 82//157
f 1//158 80//158 82//158
f 80//159 10//159 82//159
f 82//160 10//160 9//160
o trunk_Cube
v -0.089158 0.014365 0.286430
v 0.101507 0.797952 -0.146869
v -0.195173 0.399806 -0.122140
v -0.243139 0.436995 0.019576
v -0.016801 0.436875 -0.246871
v -0.471648 1.329176 -0.044524
v -0.546869 2.047113 -0.065373
v 0.181235 0.750953 0.049433
v -0.110882 1.646151 0.072614
v -0.365448 1.668151 -0.181926
v -0.578142 2.255295 0.199761
v -0.499948 1.869352 0.169700
v -0.020683 3.092245 -0.241687
v -0.182810 3.077532 -0.097200
v -0.961287 2.523022 0.035845
v -0.632976 2.208482 0.161820
v -0.414262 2.399113 0.080926
v -0.232445 4.213794 -0.240428
v -0.075511 4.181825 -0.165224
v -1.103992 3.837814 -0.067104
v -1.041414 3.859818 -0.141071
v -0.166624 1.833604 0.133178
v -0.465294 1.309094 0.091548
v 0.088859 0.014816 -0.286509
v 0.282679 -0.008845 0.100379
v 0.245507 -0.013375 -0.182483
v -0.286477 0.014379 -0.088943
v -0.365930 2.422250 -0.047303
v -0.224311 2.500243 0.031797
v -0.376514 2.070706 -0.187377
v -0.223265 2.086282 -0.196825
v -0.161526 0.405729 0.169418
v 0.118129 -0.019494 0.262411
v -0.432145 2.458956 0.616233
v -0.181285 2.222929 0.137340
v -0.375246 1.980313 0.257816
v -0.353341 4.073875 0.812777
v -0.539357 4.034371 0.847657
v -1.001091 2.569423 -0.139911
v -0.815598 3.925965 -0.894308
v -0.931910 3.898137 -0.094233
v -1.023683 2.842872 0.078323
v -0.740977 2.688214 0.098390
v -0.284179 3.068774 0.722452
v -0.001016 3.368435 -0.080917
v -0.045092 3.744430 -0.311865
v -0.195907 4.239047 -0.122328
v -0.173710 3.779411 -0.157855
v -0.762775 3.946643 -0.875230
v -0.876455 3.429180 -0.673017
v -0.825819 3.434871 -0.764561
v -0.273675 2.657114 0.808537
v -0.245297 3.037546 0.861433
v -0.432009 2.629781 0.658225
v -0.403355 2.722816 0.637283
v -0.923636 2.782379 -0.201466
v -0.934843 2.582525 -0.188785
v -0.761139 2.871180 -0.115055
v -0.763510 2.650599 -0.142126
v -0.297755 3.053204 0.872105
v -0.379591 3.004106 0.898818
v -0.126932 3.795918 1.747832
v -0.072175 3.151673 1.081717
v -0.184727 3.155742 1.093800
v -0.136706 3.844457 1.697291
v -0.209354 3.835088 1.727976
v -0.200925 3.780694 1.801643
v -0.111997 3.429596 1.318902
v -0.180176 3.099213 1.143384
v -0.100988 3.342382 1.271031
v -0.077002 3.387970 1.374476
v -0.097645 3.289147 1.351508
v 0.136623 3.548833 1.278816
v 0.206396 3.710666 1.212470
v 0.370503 4.048187 1.264959
v 0.445463 4.026676 1.278310
v 0.152366 3.512485 1.251367
v 0.393354 4.024649 1.315964
v 0.177375 0.033093 0.247338
v -0.079582 2.501797 -0.011573
v -0.336145 2.302544 0.144005
v -0.230441 2.644236 0.534216
v -0.443139 4.034450 0.907052
v -0.183300 2.651088 0.698569
v -0.461752 2.883864 0.816372
v -0.472449 4.095640 0.743031
v -0.188317 3.400436 1.495898
v -0.596918 2.388186 -0.158932
v -0.150781 2.131756 0.174520
v -0.249685 -0.017496 0.172527
v -0.164406 -0.026694 -0.250462
v -0.170671 1.935080 -0.128335
v -0.136311 4.162867 -0.330612
v -1.003546 3.873068 0.048769
v -0.318435 2.431098 -0.152161
v -0.314020 2.847364 0.623050
v -0.812092 3.364068 -0.624786
v -0.697082 2.594771 -0.084560
v -0.998573 2.869858 -0.127478
v -0.754635 3.937196 -0.964730
v -0.779226 2.815120 -0.200214
v -0.244802 2.967786 0.837483
v -0.353949 2.897519 0.897894
vn -0.1025 -0.9110 0.3993
vn 0.4162 0.1135 -0.9022
vn 0.9257 0.1789 -0.3331
vn 0.8234 0.1467 0.5482
vn -0.9971 -0.0668 0.0367
vn -0.6662 -0.0913 -0.7402
vn 0.9403 0.3028 0.1556
vn -0.4541 -0.1052 0.8847
vn -0.8703 -0.2564 0.4205
vn 0.9957 -0.0879 0.0292
vn -0.5796 -0.0270 -0.8145
vn 0.5079 -0.2026 -0.8372
vn 0.2203 0.2377 -0.9460
vn 0.7665 0.5115 -0.3885
vn 0.0717 0.5855 0.8075
vn -0.0600 -0.0152 -0.9981
vn 0.1390 -0.1008 -0.9851
vn 0.2862 0.0506 0.9568
vn -0.4393 0.2259 0.8695
vn -0.1937 0.9756 0.1030
vn -0.7271 -0.2218 -0.6498
vn -0.3307 0.9437 0.0010
vn 0.1175 0.0852 0.9894
vn 0.0169 -0.6333 0.7737
vn 0.0945 -0.9157 -0.3905
vn -0.3863 -0.9206 -0.0579
vn -0.4276 0.8962 -0.1181
vn 0.2620 0.3785 0.8878
vn 0.1592 0.3097 0.9374
vn 0.3870 0.7029 0.5968
vn -0.4295 0.2076 -0.8789
vn 0.3155 0.6699 -0.6721
vn -0.0373 0.9341 0.3551
vn -0.2329 0.8968 0.3762
vn -0.9928 0.0133 -0.1194
vn -0.9641 -0.2097 0.1630
vn 0.9935 -0.0263 -0.1109
vn -0.1429 0.6001 0.7870
vn -0.0089 0.5895 0.8077
vn -0.9982 0.0544 -0.0253
vn -0.8483 -0.2176 -0.4827
vn -0.9861 -0.0991 -0.1333
vn 0.3643 0.0918 -0.9268
vn -0.7257 -0.0408 -0.6868
vn -0.1598 0.0314 0.9866
vn 0.9738 0.1765 0.1435
vn 0.8831 0.1558 -0.4426
vn -0.8422 -0.0009 -0.5391
vn -0.2414 0.0624 -0.9684
vn 0.9936 0.0597 0.0963
vn 0.8652 0.1036 -0.4906
vn 0.9876 0.0202 -0.1556
vn -0.7741 -0.1957 -0.6020
vn -0.5772 -0.0906 0.8116
vn -0.2550 0.4000 0.8803
vn 0.9303 0.2405 -0.2769
vn 0.0194 0.4073 -0.9131
vn 0.9635 0.2395 -0.1195
vn 0.5420 -0.1278 0.8306
vn 0.7625 -0.1299 0.6338
vn -0.5225 -0.3928 0.7567
vn -0.5913 -0.0180 -0.8063
vn 0.9311 0.1808 -0.3168
vn 0.5976 -0.7840 0.1679
vn 0.1597 0.8624 -0.4803
vn 0.3089 0.7151 0.6271
vn 0.1403 0.8041 0.5777
vn -0.9972 -0.0661 0.0335
vn 0.8899 0.3352 -0.3094
vn 0.9868 0.1572 -0.0398
vn 0.4451 -0.5521 0.7050
vn 0.5781 -0.4817 0.6586
vn -0.2294 0.7042 0.6719
vn -0.9474 0.1645 0.2745
vn -0.0466 0.4761 -0.8781
vn 0.0647 -0.2091 -0.9757
vn 0.5675 -0.2970 0.7679
vn 0.4539 -0.7344 -0.5046
vn -0.0410 0.3941 0.9182
vn 0.2048 0.9204 0.3330
vn 0.5354 -0.3489 0.7691
vn 0.1915 0.0592 -0.9797
vn -0.8697 0.4542 0.1932
vn 0.6148 -0.5235 0.5899
vn 0.0414 -0.9991 -0.0019
vn 0.9203 0.2255 -0.3198
vn -0.0102 -0.9998 0.0197
vn -0.9936 0.1093 -0.0290
vn -0.6790 0.1662 -0.7150
vn -0.9585 -0.2547 -0.1279
vn -0.1496 0.0553 -0.9872
vn 0.5668 0.2166 -0.7949
vn 0.9837 0.1225 -0.1312
vn -0.9875 -0.0999 0.1215
vn -0.5853 -0.1164 -0.8024
vn 0.9862 -0.1405 -0.0876
vn 0.6596 0.1965 0.7255
vn 0.1604 0.1007 0.9819
vn -0.6285 -0.1455 0.7641
vn -0.4549 -0.4996 -0.7372
vn 0.9453 0.1971 0.2600
vn 0.9622 0.2585 0.0854
vn -0.7388 -0.6657 0.1050
vn 0.1902 0.1825 -0.9646
vn 0.0094 0.0957 -0.9954
vn -0.7995 -0.3015 0.5195
vn -0.9263 -0.3655 -0.0915
vn -0.5509 0.8096 -0.2028
vn -0.0582 -0.0328 -0.9978
vn -0.9627 0.1753 -0.2062
vn -0.2258 0.0868 0.9703
vn -0.9788 0.2047 0.0079
vn 0.1193 0.2687 0.9558
vn 0.6696 0.5167 -0.5335
vn -0.1526 0.9882 0.0143
vn 0.6394 0.7360 -0.2225
vn -0.5200 -0.2114 0.8276
vn -0.7277 0.1565 0.6678
vn 0.3488 0.9080 -0.2323
vn 0.2378 0.9322 -0.2729
vn -0.9487 -0.0697 0.3084
vn 0.9156 0.1836 -0.3577
vn -0.3309 0.9437 -0.0003
vn 0.4295 -0.1464 0.8911
vn -0.4738 0.8804 -0.0197
vn -0.9019 0.1549 0.4032
vn 0.0482 0.3618 0.9310
vn 0.1613 0.4185 0.8938
vn 0.9740 -0.0811 0.2114
vn 0.5896 -0.1541 -0.7929
vn -0.5039 0.6831 -0.5286
vn -0.9254 -0.0898 0.3683
vn -0.2447 -0.5673 0.7863
vn -0.0440 0.7575 -0.6514
vn -0.5992 -0.0533 0.7988
vn 0.9524 0.2441 -0.1828
vn 0.8929 0.3596 -0.2711
vn 0.0156 -0.6325 0.7744
vn 0.5927 -0.5600 0.5789
vn 0.6443 -0.5229 0.5581
vn 0.9935 0.1077 0.0362
vn 0.4150 -0.5451 -0.7284
vn 0.2639 0.1030 -0.9590
vn -0.3210 0.9384 -0.1282
vn -0.7566 -0.0417 -0.6525
vn 0.4290 0.0896 -0.8988
vn 0.9759 0.2147 -0.0381
vn -0.7602 0.0335 0.6488
vn 0.8589 0.2099 0.4671
vn -0.9633 -0.0579 -0.2621
vn -0.7958 0.2466 0.5530
vn 0.3042 0.0112 0.9525
vn 0.7050 0.0794 0.7047
vn 0.3072 0.9433 0.1260
vn 0.5197 0.1469 -0.8416
vn 0.9950 0.0860 -0.0500
vn -0.7718 -0.0448 -0.6343
vn 0.3871 0.1301 0.9128
vn 0.9549 -0.2164 -0.2034
vn 0.9945 -0.0433 0.0950
vn -0.7236 -0.2049 -0.6591
vn -0.8710 -0.0703 -0.4862
vn -0.4474 0.4091 0.7953
vn -0.4203 -0.4361 0.7957
vn -0.9517 0.0740 -0.2979
vn -0.8806 0.1718 -0.4416
vn 0.9641 0.0923 -0.2490
vn -0.6805 0.0360 -0.7318
vn -0.1856 0.8384 -0.5125
vn 0.5110 -0.2424 -0.8247
vn 0.5413 -0.7960 0.2708
vn 0.7009 0.2361 -0.6731
vn -0.0160 0.8929 -0.4500
vn -0.5379 0.8355 -0.1122
vn -0.4956 -0.4656 0.7333
vn -0.9954 -0.0782 0.0562
vn -0.6498 0.4568 -0.6075
vn -0.3732 0.6130 -0.6964
vn 0.8642 -0.2780 0.4193
vn 0.5778 -0.7038 0.4132
vn 0.1045 -0.7549 0.6475
vn 0.9927 0.1152 0.0350
vn -0.0512 0.6997 -0.7126
vn 0.5816 -0.3146 0.7502
vn -0.5568 0.3446 -0.7558
vn 0.5563 -0.3564 0.7507
vn 0.6100 -0.3095 -0.7295
vn -0.8046 0.3127 0.5048
usemtl tree_bark_light
s off
f 83//161 172//161 115//161
f 84//162 108//162 87//162
f 84//163 90//163 108//163
f 107//164 90//164 161//164
f 105//165 94//165 88//165
f 89//166 92//166 88//166
f 174//167 91//167 90//167
f 114//168 115//168 94//168
f 114//169 105//169 86//169
f 127//170 162//170 95//170
f 92//171 89//171 112//171
f 92//172 113//172 174//172
f 112//173 139//173 170//173
f 141//174 180//174 170//174
f 163//175 99//175 93//175
f 112//176 113//176 92//176
f 95//177 112//177 128//177
f 111//178 162//178 127//178
f 127//179 96//179 111//179
f 110//180 170//180 99//180
f 175//181 130//181 100//181
f 123//182 103//182 102//182
f 94//183 161//183 104//183
f 104//184 118//184 94//184
f 106//185 108//185 173//185
f 109//186 173//186 172//186
f 110//187 111//187 177//187
f 117//188 162//188 111//188
f 83//189 115//189 114//189
f 117//190 99//190 163//190
f 178//191 164//191 137//191
f 117//192 163//192 164//192
f 165//193 119//193 168//193
f 120//194 165//194 168//194
f 121//195 124//195 181//195
f 121//196 97//196 124//196
f 183//197 133//197 179//197
f 138//198 183//198 179//198
f 179//199 132//199 138//199
f 139//200 138//200 132//200
f 132//201 133//201 139//201
f 181//202 124//202 102//202
f 138//203 103//203 123//203
f 138//204 181//204 103//204
f 124//205 98//205 176//205
f 180//206 123//206 125//206
f 140//207 123//207 180//207
f 137//208 120//208 168//208
f 168//209 178//209 137//209
f 142//210 126//210 119//210
f 126//211 178//211 119//211
f 127//212 95//212 128//212
f 175//213 128//213 130//213
f 129//214 130//214 127//214
f 131//215 132//215 179//215
f 126//216 166//216 164//216
f 178//217 126//217 164//217
f 126//218 184//218 166//218
f 184//219 185//219 134//219
f 166//220 184//220 134//220
f 185//221 167//221 116//221
f 138//222 139//222 121//222
f 140//223 180//223 183//223
f 185//224 184//224 145//224
f 146//225 135//225 142//225
f 149//226 144//226 147//226
f 147//227 148//227 149//227
f 169//228 148//228 151//228
f 147//229 153//229 150//229
f 147//230 144//230 153//230
f 169//231 154//231 149//231
f 144//232 149//232 154//232
f 153//233 155//233 150//233
f 151//234 152//234 146//234
f 152//235 151//235 150//235
f 152//236 156//236 159//236
f 154//237 155//237 153//237
f 152//238 159//238 154//238
f 156//239 150//239 155//239
f 160//240 158//240 157//240
f 159//241 160//241 155//241
f 156//242 157//242 158//242
f 160//243 156//243 155//243
f 115//244 107//244 161//244
f 107//245 115//245 173//245 108//245
f 84//246 174//246 90//246
f 173//247 115//247 172//247
f 86//248 85//248 109//248 172//248
f 173//249 109//249 85//249 87//249
f 88//250 85//250 86//250 105//250
f 106//251 173//251 87//251
f 87//252 108//252 106//252
f 107//253 108//253 90//253
f 88//254 94//254 89//254
f 92//255 87//255 85//255 88//255
f 104//256 174//256 95//256 162//256
f 90//257 91//257 161//257
f 94//258 115//258 161//258
f 114//259 94//259 105//259
f 139//260 112//260 89//260 121//260
f 104//261 161//261 91//261
f 91//262 174//262 104//262
f 89//263 98//263 97//263 121//263
f 170//264 139//264 141//264
f 112//265 170//265 177//265
f 98//266 94//266 116//266
f 98//267 89//267 94//267
f 98//268 116//268 93//268
f 95//269 113//269 112//269
f 128//270 112//270 177//270
f 127//271 130//271 96//271
f 128//272 177//272 96//272
f 125//273 98//273 93//273 99//273
f 99//274 170//274 180//274
f 110//275 177//275 170//275
f 180//276 125//276 99//276
f 124//277 97//277 98//277
f 172//278 83//278 114//278 86//278
f 175//279 129//279 101//279
f 175//280 100//280 129//280
f 100//281 130//281 129//281
f 101//282 128//282 175//282
f 176//283 123//283 102//283
f 104//284 171//284 118//284
f 110//285 99//285 111//285
f 111//286 96//286 177//286
f 117//287 111//287 99//287
f 117//288 171//288 162//288
f 104//289 162//289 171//289
f 95//290 174//290 113//290
f 136//291 137//291 163//291 93//291
f 116//292 136//292 93//292
f 116//293 94//293 134//293
f 137//294 164//294 163//294
f 120//295 167//295 143//295 165//295
f 166//296 171//296 117//296
f 164//297 166//297 117//297
f 134//298 94//298 118//298
f 134//299 118//299 171//299
f 171//300 166//300 134//300
f 183//301 141//301 133//301
f 139//302 133//302 141//302
f 92//303 174//303 84//303 87//303
f 122//304 131//304 182//304
f 102//305 103//305 181//305
f 123//306 140//306 138//306
f 176//307 98//307 125//307
f 176//308 102//308 124//308
f 125//309 123//309 176//309
f 137//310 167//310 120//310
f 143//311 167//311 151//311 146//311
f 165//312 143//312 142//312
f 142//313 119//313 165//313
f 142//314 135//314 126//314
f 119//315 178//315 168//315
f 127//316 128//316 101//316
f 130//317 128//317 96//317
f 129//318 127//318 101//318
f 179//319 133//319 182//319
f 182//320 131//320 179//320
f 132//321 122//321 182//321
f 132//322 182//322 133//322
f 132//323 131//323 122//323
f 134//324 185//324 116//324
f 116//325 167//325 136//325
f 137//326 136//326 167//326
f 135//327 184//327 126//327
f 138//328 121//328 181//328
f 138//329 140//329 183//329
f 183//330 180//330 141//330
f 185//331 145//331 151//331
f 145//332 184//332 135//332
f 146//333 145//333 135//333
f 142//334 143//334 146//334
f 167//335 185//335 151//335
f 169//336 149//336 148//336
f 150//337 151//337 148//337
f 150//338 148//338 147//338
f 154//339 153//339 144//339
f 145//340 154//340 151//340
f 154//341 169//341 151//341
f 152//342 154//342 145//342
f 152//343 145//343 146//343
f 155//344 154//344 159//344
f 152//345 150//345 156//345
f 159//346 158//346 160//346
f 158//347 159//347 156//347
f 160//348 157//348 156//348
