# Blender v2.78 (sub 0) OBJ File: 'tree-columnar.blend'
# www.blender.org
mtllib tree-columnar.mtl
o leaves_Sphere
v 1.120085 3.903758 -0.179212
v 0.748808 7.294017 0.189694
v 1.046132 5.489074 0.549046
v 0.624065 4.462292 1.100673
v 1.167416 2.098433 1.284787
v 1.009690 1.574385 1.270007
v 0.007812 1.332891 0.532856
v -0.160278 1.699914 1.549024
v 0.419884 3.819748 1.078884
v -0.487845 7.927566 0.456569
v -0.379205 4.467958 0.965551
v -1.079738 2.307736 1.064045
v -0.693400 5.598069 0.888035
v -0.791697 7.642013 -0.008996
v -1.682292 2.371104 -0.347705
v -1.288364 2.843878 -0.805005
v -1.358388 1.485168 -0.687685
v -0.577271 3.599879 -1.156893
v -0.392227 1.738517 -1.711605
v 0.769481 2.660166 -1.359608
v 0.311878 5.356591 -1.230176
v 0.636759 3.917777 -0.972434
v 1.259853 1.686344 -0.874156
v 0.675080 6.526549 -0.627678
v 0.414987 7.512243 -0.786246
v 0.299190 8.174513 -0.454939
v 1.436503 2.731905 0.295146
v 1.003500 3.571865 0.677891
v 0.171262 7.386390 0.822055
v 0.028402 2.316475 1.604165
v -0.277398 5.882360 1.112373
v -1.233736 1.674920 0.592874
v -1.109207 5.001595 0.324920
v -0.762204 5.682641 -0.954280
v -0.182700 8.040369 -0.645928
v -0.598324 1.474339 -1.388753
v 0.435283 7.976737 0.360277
v -0.223659 8.415500 0.115582
v 0.189166 5.709445 1.149145
v -1.062077 3.921403 0.357561
v -0.997411 6.273541 0.201840
v -1.169500 4.071723 -0.423315
v 0.047794 1.370080 -0.069905
v 0.071626 8.491829 -0.190023
v -0.648395 7.265758 -0.585316
v 0.302940 3.572313 -1.229598
v -0.127162 6.470608 -1.017278
v 0.704596 1.464955 -1.489830
v 1.074029 5.705678 -0.545758
v 1.457380 1.527054 -0.023074
v 1.407806 2.692484 -0.494920
vn 0.9989 0.0273 -0.0376
vn 0.9915 -0.0133 0.1297
vn 0.8740 0.2650 0.4073
vn 0.7394 0.1773 0.6494
vn 0.7332 0.2469 0.6336
vn 0.9036 -0.2811 0.3231
vn 0.1080 -0.9914 0.0737
vn 0.2632 -0.9638 -0.0420
vn 0.5008 -0.1878 0.8450
vn 0.6272 0.3553 0.6932
vn 0.0926 0.5874 0.8039
vn 0.0074 -0.0362 0.9993
vn 0.0110 0.5688 0.8224
vn -0.2406 -0.9249 0.2943
vn -0.4321 0.1804 0.8836
vn -0.9014 0.1819 0.3929
vn -0.8267 0.1722 0.5357
vn -0.9188 -0.0662 0.3892
vn -0.0530 -0.9965 -0.0650
vn -0.7342 0.5926 -0.3314
vn -0.9345 0.1431 -0.3258
vn -0.6495 0.2823 -0.7060
vn -0.7807 -0.0085 -0.6248
vn -0.0599 -0.9970 -0.0495
vn -0.2495 0.0860 -0.9646
vn -0.3812 0.2357 -0.8939
vn -0.0704 0.2785 -0.9579
vn -0.0258 0.2293 -0.9730
vn -0.0823 0.0001 -0.9966
vn 0.0994 0.6788 -0.7276
vn 0.2198 0.0939 -0.9710
vn 0.3956 0.3204 -0.8607
vn 0.3587 0.3090 -0.8808
vn 0.2975 -0.9519 0.0740
vn 0.6640 0.0160 -0.7476
vn 0.7722 0.2600 -0.5798
vn 0.8503 -0.0840 -0.5196
vn 0.9394 0.2035 -0.2758
vn 0.8334 0.3635 -0.4164
vn 0.9704 -0.0540 -0.2353
vn 0.8145 0.5801 0.0048
vn 0.9690 0.2425 -0.0473
vn 0.9830 0.1738 0.0594
vn 0.9032 0.4266 -0.0473
vn 0.9017 0.3476 0.2572
vn 0.7703 0.0257 0.6372
vn 0.9709 -0.0453 0.2350
vn 0.3324 0.7881 0.5180
vn 0.5935 0.1602 0.7887
vn 0.5947 0.1769 0.7843
vn 0.3047 0.2425 0.9211
vn 0.2503 -0.1025 0.9627
vn -0.0207 -0.9414 0.3366
vn -0.0064 0.1914 0.9815
vn 0.2139 -0.1517 0.9650
vn -0.1872 -0.0593 0.9805
vn 0.1107 0.3020 0.9469
vn -0.2923 0.2646 0.9190
vn -0.1130 -0.0945 0.9891
vn -0.4378 0.0537 0.8974
vn -0.5667 0.1981 0.7998
vn -0.4410 -0.0612 0.8954
vn -0.6076 -0.1150 0.7859
vn -0.7520 0.2713 0.6008
vn -0.6130 -0.3704 0.6979
vn -0.7959 -0.0164 0.6051
vn -0.8564 0.1238 0.5013
vn -0.8721 0.1999 0.4466
vn -0.9097 -0.3887 0.1461
vn -0.2544 -0.9527 0.1659
vn -0.8064 0.5630 0.1809
vn -0.9909 -0.0393 0.1287
vn -0.9960 0.0851 -0.0255
vn -0.9507 0.1512 -0.2707
vn -0.9386 0.2912 0.1852
vn -0.9624 0.1061 -0.2500
vn -0.7719 0.4272 -0.4708
vn -0.8427 0.2325 -0.4856
vn -0.7354 -0.0415 -0.6764
vn -0.7270 -0.0023 -0.6866
vn -0.5827 0.7162 -0.3841
vn -0.6397 -0.3421 -0.6883
vn -0.5823 0.1785 -0.7932
vn -0.1937 0.0779 -0.9780
vn -0.4350 0.1927 -0.8796
vn 0.2106 0.4666 -0.8590
vn -0.0561 -0.7548 -0.6535
vn -0.0128 -0.9973 -0.0726
vn 0.1310 0.2053 -0.9699
vn 0.6124 -0.0033 -0.7905
vn 0.4383 -0.0289 -0.8984
vn 0.5970 0.2130 -0.7734
vn 0.8115 0.3202 -0.4888
vn 0.7361 0.0337 -0.6760
vn 0.7981 0.1062 -0.5931
vn 0.9241 0.2875 -0.2518
vn 0.1151 -0.9712 -0.2085
vn 0.9990 0.0320 0.0318
usemtl tree_green
s off
f 27//1 50//1 51//1
f 1//2 3//2 28//2
f 27//3 28//3 5//3
f 2//4 37//4 29//4
f 2//5 29//5 3//5
f 6//6 50//6 5//6
f 43//7 50//7 6//7
f 6//8 7//8 43//8
f 4//9 9//9 28//9
f 5//10 28//10 9//10
f 38//11 29//11 37//11
f 39//12 9//12 4//12
f 10//13 29//13 38//13
f 32//14 7//14 8//14
f 30//15 11//15 12//15
f 12//16 40//16 15//16
f 41//17 13//17 10//17
f 15//18 32//18 12//18
f 43//19 7//19 17//19
f 38//20 35//20 14//20
f 14//21 45//21 34//21
f 42//22 18//22 16//22
f 42//23 34//23 18//23
f 43//24 17//24 36//24
f 47//25 21//25 18//25
f 47//26 34//26 45//26
f 19//27 18//27 46//27
f 47//28 35//28 25//28
f 18//29 21//29 46//29
f 44//30 26//30 35//30
f 20//31 48//31 19//31
f 24//32 21//32 47//32
f 20//33 46//33 22//33
f 23//34 43//34 48//34
f 22//35 21//35 49//35
f 51//36 20//36 22//36
f 1//37 22//37 49//37
f 2//38 24//38 25//38
f 49//39 24//39 2//39
f 23//40 51//40 50//40
f 26//41 44//41 37//41
f 51//42 1//42 27//42
f 2//43 3//43 49//43
f 26//44 37//44 2//44
f 27//45 1//45 28//45
f 3//46 4//46 28//46
f 5//47 50//47 27//47
f 37//48 44//48 38//48
f 39//49 3//49 29//49
f 39//50 4//50 3//50
f 30//51 5//51 9//51
f 30//52 6//52 5//52
f 7//53 6//53 8//53
f 29//54 31//54 39//54
f 8//55 6//55 30//55
f 11//56 9//56 39//56
f 9//57 11//57 30//57
f 29//58 10//58 31//58
f 11//59 39//59 31//59
f 30//60 12//60 8//60
f 31//61 10//61 13//61
f 13//62 11//62 31//62
f 13//63 40//63 11//63
f 12//64 11//64 40//64
f 12//65 32//65 8//65
f 13//66 33//66 40//66
f 33//67 13//67 41//67
f 10//68 14//68 41//68
f 15//69 17//69 32//69
f 7//70 32//70 17//70
f 14//71 10//71 38//71
f 33//72 42//72 40//72
f 41//73 42//73 33//73
f 41//74 34//74 42//74
f 15//75 40//75 42//75
f 14//76 34//76 41//76
f 45//77 14//77 35//77
f 16//78 15//78 42//78
f 16//79 19//79 15//79
f 17//80 15//80 19//80
f 38//81 44//81 35//81
f 19//82 36//82 17//82
f 18//83 19//83 16//83
f 47//84 18//84 34//84
f 47//85 45//85 35//85
f 35//86 26//86 25//86
f 48//87 36//87 19//87
f 36//88 48//88 43//88
f 20//89 19//89 46//89
f 21//90 22//90 46//90
f 25//91 24//91 47//91
f 24//92 49//92 21//92
f 22//93 1//93 51//93
f 23//94 48//94 20//94
f 20//95 51//95 23//95
f 25//96 26//96 2//96
f 50//97 43//97 23//97
f 3//98 1//98 49//98
o trunk_Cube
v 0.021294 2.447847 -0.080693
v -0.141412 1.904719 -0.126140
v -0.046365 -0.041392 -0.374270
v -0.199661 2.385752 -0.027590
v 0.360492 0.005083 0.069635
v 0.344479 -0.018943 -0.150500
v 0.225575 -0.030546 0.293130
v -0.367438 0.011019 0.079902
v -0.286648 -0.033184 0.226659
v -0.078305 0.006287 0.349078
v -0.060987 5.524674 -0.243660
v 0.140173 5.576651 -0.083300
v 0.040606 5.551585 0.061628
v -0.113975 2.878797 0.317129
v -0.149254 5.513420 -0.022636
v 0.228851 0.030830 -0.318991
v 0.161132 2.741059 0.278732
v -0.313147 -0.010936 -0.225332
v 0.173514 2.543562 0.054342
vn -0.0436 -0.9268 0.3731
vn -0.1358 -0.9899 -0.0408
vn 0.1676 0.1110 -0.9796
vn -0.5851 0.0942 -0.8055
vn -0.9830 0.0161 -0.1828
vn -0.9097 0.0411 0.4132
vn 0.9973 0.0734 -0.0096
vn 0.3680 -0.9268 0.0744
vn 0.3106 -0.8323 -0.4590
vn -0.4559 -0.8899 -0.0171
vn -0.2081 0.9778 0.0261
vn 0.1786 0.0834 0.9804
vn 0.1641 0.0110 0.9864
vn -0.2732 0.1612 -0.9483
vn 0.6725 -0.0262 -0.7396
vn 0.6112 0.1295 -0.7808
vn 0.0032 -0.9999 0.0149
vn 0.0627 -0.9980 -0.0093
vn -0.8621 0.0835 0.4998
vn -0.9819 0.0613 -0.1791
vn -0.1239 0.1195 -0.9851
vn -0.4779 0.0881 -0.8740
vn 0.8543 0.0226 0.5193
vn 0.9941 0.0727 -0.0803
vn 0.8339 0.0990 -0.5430
vn -0.5071 0.0033 0.8619
vn -0.2210 0.9745 -0.0386
vn -0.4216 0.1104 0.9000
vn 0.9990 0.0130 0.0437
vn 0.8152 0.0793 0.5738
vn -0.9288 0.0156 -0.3701
vn -0.2180 -0.0574 -0.9743
vn 0.6270 -0.0245 -0.7786
usemtl tree_bark_dark
s off
f 61//99 60//99 58//99
f 60//100 69//100 54//100
f 52//101 67//101 54//101
f 55//102 53//102 69//102
f 60//103 66//103 55//103
f 65//104 66//104 60//104
f 56//105 70//105 68//105
f 56//106 58//106 57//106
f 57//107 54//107 67//107
f 59//108 69//108 60//108
f 66//109 64//109 63//109
f 68//110 64//110 65//110
f 58//111 68//111 65//111 61//111
f 53//112 55//112 52//112
f 63//113 70//113 52//113
f 52//114 70//114 67//114
f 54//115 58//115 60//115
f 54//116 57//116 58//116
f 59//117 60//117 55//117
f 59//118 55//118 69//118
f 52//119 54//119 53//119
f 54//120 69//120 53//120
f 68//121 58//121 56//121
f 56//122 57//122 70//122
f 57//123 67//123 70//123
f 65//124 60//124 61//124
f 66//125 63//125 62//125
f 65//126 64//126 66//126
f 63//127 68//127 70//127
f 68//128 63//128 64//128
f 66//129 62//129 55//129
f 52//130 55//130 62//130
f 62//131 63//131 52//131
